<svg id="logos" xmlns="http://www.w3.org/2000/svg" viewBox="0 0 309 224"><defs><style>.cls-1{fill:#00b5ef;}.cls-2{fill:#fff;}.cls-3{fill:#263287;}</style></defs><path class="cls-1" d="M155,20.91c-76.77,0-139,39.81-139,88.92S78.28,202.6,155,202.6s139-43.67,139-92.77S231.8,20.91,155,20.91Z"/><path class="cls-2" d="M109.81,82.34c-.07.14-1.43,1.54-.55,2.67,2.15,2.75,8.79,4.32,15.5,2.81,4-.9,9.12-5,14.08-8.91,5.38-4.27,10.72-8.55,16.08-10.25,5.68-1.81,9.32-1,11.72-.31,2.64.79,5.74,2.52,10.69,6.24,9.32,7,46.79,39.71,53.26,45.36,5.21-2.35,30-12.39,61.54-19.33-2.74-16.79-12.84-32.79-28.33-45.37-21.59,9.07-49.74,14.5-75.54,1.9-.13,0-14.09-6.66-27.87-6.34-20.47.48-29.34,9.33-38.72,18.71L109.78,82.33Z"/><path class="cls-2" d="M229.08,123.52c-.44-.39-44.06-38.56-53.94-46-5.72-4.29-8.9-5.38-12.24-5.81a16.82,16.82,0,0,0-5.82.56c-4.6,1.25-10.61,5.27-15.94,9.5-5.52,4.4-10.73,8.54-15.57,9.63-6.18,1.38-13.72-.25-17.16-2.58a7.59,7.59,0,0,1-2.85-3.12c-1.27-2.95,1.07-5.3,1.46-5.7l12-13c1.4-1.39,2.81-2.79,4.25-4.17a78.61,78.61,0,0,0-11,2.47c-4.36,1.22-8.56,2.39-12.8,2.39a121.73,121.73,0,0,1-13.07-2c-10.9-3-23.24-5.88-37.52-12.55C31.84,65.83,20.69,81.47,17.39,99c2.46.65,8.9,2.12,10.57,2.49,38.73,8.61,50.79,17.48,53,19.33A12.82,12.82,0,0,1,101,122a14.65,14.65,0,0,1,9.23-3.25,17.21,17.21,0,0,1,5.54,1,12.75,12.75,0,0,1,7.8,7,13,13,0,0,1,5.39-1.15,16.28,16.28,0,0,1,6.44,1.42c7.14,3.06,8.25,10.08,7.6,15.36a13.13,13.13,0,0,1,1.54-.08,15.37,15.37,0,0,1,15.35,15.36,15.18,15.18,0,0,1-1.84,7.25c2.3,1.3,8.17,4.22,13.33,3.57,4.11-.52,5.68-1.92,6.24-2.72.39-.54.79-1.18.41-1.64L167.14,152s-1.8-1.7-1.2-2.36,1.73.29,2.51.95c5.56,4.64,12.35,11.65,12.35,11.65s.57,1,3.08,1.41a11.38,11.38,0,0,0,8.64-2,13.42,13.42,0,0,0,1.9-1.94.57.57,0,0,1-.13.1c2.8-3.58-.31-7.19-.31-7.19l-12.76-14.33s-1.83-1.69-1.2-2.36,1.73.3,2.53,1c4,3.38,9.74,9.1,15.21,14.46,1.07.78,5.87,3.75,12.24-.42,3.87-2.53,4.64-5.65,4.53-8a9.12,9.12,0,0,0-2.69-5.32L194.42,120.1s-1.85-1.57-1.19-2.37,1.72.29,2.51,1c5.55,4.64,20.57,18.42,20.57,18.42a10.57,10.57,0,0,0,11.82-.24,7.87,7.87,0,0,0,3.88-6.25,9.23,9.23,0,0,0-2.92-7.1Z"/><path class="cls-2" d="M144.56,145.72c-2.7,0-5.66,1.58-6,1.34-.22-.14.17-1.23.42-1.85s3.82-11.33-4.85-15c-6.64-2.85-10.7.36-12.09,1.8-.36.38-.53.35-.57-.13-.14-1.93-1-7.15-6.73-8.9-8.19-2.5-13.45,3.21-14.79,5.27a9.46,9.46,0,1,0-2.81,8c.05.05.08.14.05.32C96.75,138.93,96,147.47,105,151c3.59,1.39,6.64.36,9.17-1.41.75-.53.87-.31.77.4-.32,2.2.09,6.9,6.68,9.57,5,2,8,0,9.93-1.85.85-.77,1.08-.64,1.12.55a12,12,0,1,0,12-12.5Z"/><path class="cls-3" d="M155,17.23c-78.23,0-141.64,41.61-141.64,92.64,0,1.32,0,5,0,5.42,0,54.15,55.43,98,141.64,98s141.66-43.84,141.66-98v-5.43c0-51-63.41-92.64-141.64-92.64ZM290.26,99.61A324.65,324.65,0,0,0,230.76,119c-13.44-11.72-44.49-38.73-52.9-45-4.81-3.62-8.09-5.52-11-6.38a18.4,18.4,0,0,0-5.38-.84,22.68,22.68,0,0,0-6.83,1.15c-5.44,1.72-10.85,6-16.09,10.19l-.27.21c-4.88,3.88-9.92,7.89-13.74,8.74a23.57,23.57,0,0,1-5.09.57c-4.28,0-8.12-1.24-9.56-3.07-.24-.3-.08-.79.47-1.5l.07-.1L122.3,70.14c9.26-9.26,18-18,38.13-18.46l1,0c12.53,0,25.06,5.62,26.46,6.27A82,82,0,0,0,224,66.58c12.67,0,25.76-3.13,39.51-9.45,14.36,12.08,23.88,26.62,26.78,42.47ZM155,22.7c41.52,0,78.68,11.9,103.66,30.65-12.08,5.22-23.58,7.87-34.69,7.86a76.7,76.7,0,0,1-33.74-8.12c-.58-.28-14.41-6.8-28.8-6.81h-1.14c-16.91.4-26.43,6.4-32.84,11.66-6.23.15-11.6,1.66-16.39,3-4.27,1.18-8,2.21-11.55,2.21-1.48,0-4.14-.14-4.38-.15C91,62.88,70.32,57.8,53.78,51.55,78.71,33.83,114.83,22.69,155,22.69ZM48.89,55.26c17.28,7.07,38.24,12.52,44.86,12.95,1.85.12,3.82.33,5.79.33,4.4,0,8.78-1.23,13-2.42,2.51-.7,5.28-1.47,8.19-2-.78.76-1.55,1.53-2.33,2.32l-12,13c-.94.95-3,3.5-1.64,6.64a8.4,8.4,0,0,0,3.16,3.5c2.86,1.93,8,3.23,12.75,3.23a23.36,23.36,0,0,0,5.08-.53c5-1.13,10.32-5.34,15.91-9.78,4.46-3.54,10.79-8,15.64-9.36a17.81,17.81,0,0,1,4.36-.6,8.06,8.06,0,0,1,1.13.07c3.2.41,6.3,1.49,11.83,5.64,9.86,7.41,53.48,45.57,53.91,46a8.41,8.41,0,0,1,2.62,6.41,7,7,0,0,1-3.49,5.57,10.6,10.6,0,0,1-5.72,1.78,9.47,9.47,0,0,1-5.06-1.46c-.16-.13-15.1-13.84-20.61-18.44a4.61,4.61,0,0,0-2.58-1.38,1.41,1.41,0,0,0-1.14.54c-.86,1.07.1,2.54,1.25,3.51l17.46,17.55A8.34,8.34,0,0,1,213.7,143c.14,2.91-1.25,5.34-4.14,7.24a11.22,11.22,0,0,1-6.19,2,9,9,0,0,1-5-1.51l-2.5-2.47c-4.58-4.5-9.31-9.16-12.76-12.05a4.66,4.66,0,0,0-2.6-1.35,1.48,1.48,0,0,0-1.1.47c-.39.44-.67,1.23.32,2.53a7.84,7.84,0,0,0,.88,1l12.74,14.31c.1.13,2.63,3.12.29,6.11l-.45.57A12.59,12.59,0,0,1,192,161a10.19,10.19,0,0,1-6.23,2,9.1,9.1,0,0,1-1.72-.15,4.3,4.3,0,0,1-2.51-1.06l-.16-.16c-.69-.72-7.11-7.28-12.43-11.71a4.36,4.36,0,0,0-2.48-1.32,1.5,1.5,0,0,0-1.15.51c-1.05,1.15.53,2.87,1.2,3.5l10.86,12a2.23,2.23,0,0,1-.41.73c-.39.54-1.71,1.86-5.65,2.35a11.48,11.48,0,0,1-1.44.09c-4.07,0-8.4-2-10.64-3.16a16.2,16.2,0,0,0-14.65-23.12H144c.29-4.09-.28-11.82-8.22-15.22a17,17,0,0,0-6.78-1.49,13.86,13.86,0,0,0-5,.9,13.65,13.65,0,0,0-7.94-6.74,17.85,17.85,0,0,0-5.82-1,15.33,15.33,0,0,0-9.06,2.9,13.64,13.64,0,0,0-20.34-1.14c-3.38-2.58-16.8-11.11-52.71-19.26-1.72-.39-5.61-1.5-8.06-2.22,3.37-16.12,13.61-30.84,28.81-42.92Zm66.62,93.49-.39-.35h-.39a2,2,0,0,0-1.1.44,9.2,9.2,0,0,1-5.37,1.91,8.53,8.53,0,0,1-3-.58c-8.33-3.24-7.67-11.1-7.26-13.46a1.15,1.15,0,0,0-.36-1.1l-.59-.48-.55.52a8.57,8.57,0,0,1-6,2.42,8.64,8.64,0,1,1,8.54-9.74l.3,2.32,1.28-2c.14-.23,3.64-5.51,10.06-5.51a12.79,12.79,0,0,1,3.75.59,8.72,8.72,0,0,1,6.12,8.14c.09,1.13.89,1.18,1,1.18a1.42,1.42,0,0,0,1-.52,8.7,8.7,0,0,1,6.36-2.69,12,12,0,0,1,4.77,1.08c8.14,3.49,4.45,13.83,4.4,13.94-.7,1.71-.73,2.47-.07,2.91l.32.15h.24a6,6,0,0,0,1.58-.41,14.1,14.1,0,0,1,4.34-1h0a11.1,11.1,0,1,1,0,22.2,11,11,0,0,1-11.08-10.59c0-.51-.07-1.86-1.22-1.86a2,2,0,0,0-1.34.71,7.82,7.82,0,0,1-5.44,2.46,9.59,9.59,0,0,1-3.59-.78c-6.32-2.57-6.41-6.91-6.15-8.65a1.59,1.59,0,0,0-.23-1.33ZM155,197c-75.22,0-136.2-39-136.2-87.13a55.13,55.13,0,0,1,.33-5.76c.6.14,6.57,1.57,7.81,1.85,36.69,8.15,48.81,16.62,50.86,18.22a13.74,13.74,0,0,0,12.68,19,14.15,14.15,0,0,0,2.52-.23,16,16,0,0,0,10.37,12,13.56,13.56,0,0,0,4.9.94,12.32,12.32,0,0,0,3.13-.39c1,2.61,3.35,5.87,8.53,8a14.45,14.45,0,0,0,5.4,1.11,12.27,12.27,0,0,0,4.2-.75,16.17,16.17,0,0,0,26.6,5.13c2.61,1.46,8.14,4.09,13.73,4.1a17.73,17.73,0,0,0,2.08-.13c5.54-.7,8.12-2.87,9.3-4.55a6,6,0,0,0,.57-.93,16.23,16.23,0,0,0,4.4.69,14.83,14.83,0,0,0,8.87-3.17c2.89-2.08,4.94-5.07,5.23-7.61a.45.45,0,0,1,0-.11,14.82,14.82,0,0,0,3,.3,16.45,16.45,0,0,0,9.11-2.89c5.66-3.7,6.63-8.54,6.54-11.71a14.58,14.58,0,0,0,3,.31,15.68,15.68,0,0,0,8.53-2.63,12.5,12.5,0,0,0,5.94-9.66,13.11,13.11,0,0,0-1.89-7.8c9.45-4.07,31.05-12,56.49-17.69.11,1.44.17,2.89.17,4.35,0,48.12-61,87.13-136.19,87.13Z"/></svg>